G04 #@! TF.GenerationSoftware,KiCad,Pcbnew,(5.1.2)-2*
G04 #@! TF.CreationDate,2020-01-05T09:35:50+00:00*
G04 #@! TF.ProjectId,PlutoPTT,506c7574-6f50-4545-942e-6b696361645f,rev?*
G04 #@! TF.SameCoordinates,Original*
G04 #@! TF.FileFunction,Copper,L1,Top*
G04 #@! TF.FilePolarity,Positive*
%FSLAX46Y46*%
G04 Gerber Fmt 4.6, Leading zero omitted, Abs format (unit mm)*
G04 Created by KiCad (PCBNEW (5.1.2)-2) date 2020-01-05 09:35:50*
%MOMM*%
%LPD*%
G04 APERTURE LIST*
%ADD10C,0.100000*%
%ADD11C,1.250000*%
%ADD12R,1.700000X1.700000*%
%ADD13O,1.700000X1.700000*%
%ADD14C,1.400000*%
%ADD15R,1.400000X1.400000*%
%ADD16R,0.800000X0.900000*%
%ADD17C,1.150000*%
%ADD18R,0.900000X0.800000*%
%ADD19C,0.800000*%
%ADD20C,0.500000*%
%ADD21C,1.000000*%
G04 APERTURE END LIST*
D10*
G36*
X74944504Y-60463204D02*
G01*
X74968773Y-60466804D01*
X74992571Y-60472765D01*
X75015671Y-60481030D01*
X75037849Y-60491520D01*
X75058893Y-60504133D01*
X75078598Y-60518747D01*
X75096777Y-60535223D01*
X75113253Y-60553402D01*
X75127867Y-60573107D01*
X75140480Y-60594151D01*
X75150970Y-60616329D01*
X75159235Y-60639429D01*
X75165196Y-60663227D01*
X75168796Y-60687496D01*
X75170000Y-60712000D01*
X75170000Y-61462000D01*
X75168796Y-61486504D01*
X75165196Y-61510773D01*
X75159235Y-61534571D01*
X75150970Y-61557671D01*
X75140480Y-61579849D01*
X75127867Y-61600893D01*
X75113253Y-61620598D01*
X75096777Y-61638777D01*
X75078598Y-61655253D01*
X75058893Y-61669867D01*
X75037849Y-61682480D01*
X75015671Y-61692970D01*
X74992571Y-61701235D01*
X74968773Y-61707196D01*
X74944504Y-61710796D01*
X74920000Y-61712000D01*
X73670000Y-61712000D01*
X73645496Y-61710796D01*
X73621227Y-61707196D01*
X73597429Y-61701235D01*
X73574329Y-61692970D01*
X73552151Y-61682480D01*
X73531107Y-61669867D01*
X73511402Y-61655253D01*
X73493223Y-61638777D01*
X73476747Y-61620598D01*
X73462133Y-61600893D01*
X73449520Y-61579849D01*
X73439030Y-61557671D01*
X73430765Y-61534571D01*
X73424804Y-61510773D01*
X73421204Y-61486504D01*
X73420000Y-61462000D01*
X73420000Y-60712000D01*
X73421204Y-60687496D01*
X73424804Y-60663227D01*
X73430765Y-60639429D01*
X73439030Y-60616329D01*
X73449520Y-60594151D01*
X73462133Y-60573107D01*
X73476747Y-60553402D01*
X73493223Y-60535223D01*
X73511402Y-60518747D01*
X73531107Y-60504133D01*
X73552151Y-60491520D01*
X73574329Y-60481030D01*
X73597429Y-60472765D01*
X73621227Y-60466804D01*
X73645496Y-60463204D01*
X73670000Y-60462000D01*
X74920000Y-60462000D01*
X74944504Y-60463204D01*
X74944504Y-60463204D01*
G37*
D11*
X74295000Y-61087000D03*
D10*
G36*
X74944504Y-57663204D02*
G01*
X74968773Y-57666804D01*
X74992571Y-57672765D01*
X75015671Y-57681030D01*
X75037849Y-57691520D01*
X75058893Y-57704133D01*
X75078598Y-57718747D01*
X75096777Y-57735223D01*
X75113253Y-57753402D01*
X75127867Y-57773107D01*
X75140480Y-57794151D01*
X75150970Y-57816329D01*
X75159235Y-57839429D01*
X75165196Y-57863227D01*
X75168796Y-57887496D01*
X75170000Y-57912000D01*
X75170000Y-58662000D01*
X75168796Y-58686504D01*
X75165196Y-58710773D01*
X75159235Y-58734571D01*
X75150970Y-58757671D01*
X75140480Y-58779849D01*
X75127867Y-58800893D01*
X75113253Y-58820598D01*
X75096777Y-58838777D01*
X75078598Y-58855253D01*
X75058893Y-58869867D01*
X75037849Y-58882480D01*
X75015671Y-58892970D01*
X74992571Y-58901235D01*
X74968773Y-58907196D01*
X74944504Y-58910796D01*
X74920000Y-58912000D01*
X73670000Y-58912000D01*
X73645496Y-58910796D01*
X73621227Y-58907196D01*
X73597429Y-58901235D01*
X73574329Y-58892970D01*
X73552151Y-58882480D01*
X73531107Y-58869867D01*
X73511402Y-58855253D01*
X73493223Y-58838777D01*
X73476747Y-58820598D01*
X73462133Y-58800893D01*
X73449520Y-58779849D01*
X73439030Y-58757671D01*
X73430765Y-58734571D01*
X73424804Y-58710773D01*
X73421204Y-58686504D01*
X73420000Y-58662000D01*
X73420000Y-57912000D01*
X73421204Y-57887496D01*
X73424804Y-57863227D01*
X73430765Y-57839429D01*
X73439030Y-57816329D01*
X73449520Y-57794151D01*
X73462133Y-57773107D01*
X73476747Y-57753402D01*
X73493223Y-57735223D01*
X73511402Y-57718747D01*
X73531107Y-57704133D01*
X73552151Y-57691520D01*
X73574329Y-57681030D01*
X73597429Y-57672765D01*
X73621227Y-57666804D01*
X73645496Y-57663204D01*
X73670000Y-57662000D01*
X74920000Y-57662000D01*
X74944504Y-57663204D01*
X74944504Y-57663204D01*
G37*
D11*
X74295000Y-58287000D03*
D12*
X77851000Y-61087000D03*
D13*
X77851000Y-63627000D03*
X77851000Y-66167000D03*
X77851000Y-68707000D03*
X67310000Y-43180000D03*
X69850000Y-45720000D03*
X69850000Y-43180000D03*
X72390000Y-45720000D03*
X72390000Y-43180000D03*
X74930000Y-45720000D03*
X74930000Y-43180000D03*
X77470000Y-45720000D03*
X77470000Y-43180000D03*
D14*
X65786000Y-64770000D03*
X65786000Y-54510000D03*
X73406000Y-54510000D03*
X73406000Y-64770000D03*
D15*
X73406000Y-67310000D03*
D14*
X65786000Y-52070000D03*
X73406000Y-52070000D03*
X65786000Y-67310000D03*
D16*
X78420000Y-56277000D03*
X76520000Y-56277000D03*
X77470000Y-58277000D03*
D10*
G36*
X78452505Y-49981204D02*
G01*
X78476773Y-49984804D01*
X78500572Y-49990765D01*
X78523671Y-49999030D01*
X78545850Y-50009520D01*
X78566893Y-50022132D01*
X78586599Y-50036747D01*
X78604777Y-50053223D01*
X78621253Y-50071401D01*
X78635868Y-50091107D01*
X78648480Y-50112150D01*
X78658970Y-50134329D01*
X78667235Y-50157428D01*
X78673196Y-50181227D01*
X78676796Y-50205495D01*
X78678000Y-50229999D01*
X78678000Y-50880001D01*
X78676796Y-50904505D01*
X78673196Y-50928773D01*
X78667235Y-50952572D01*
X78658970Y-50975671D01*
X78648480Y-50997850D01*
X78635868Y-51018893D01*
X78621253Y-51038599D01*
X78604777Y-51056777D01*
X78586599Y-51073253D01*
X78566893Y-51087868D01*
X78545850Y-51100480D01*
X78523671Y-51110970D01*
X78500572Y-51119235D01*
X78476773Y-51125196D01*
X78452505Y-51128796D01*
X78428001Y-51130000D01*
X77527999Y-51130000D01*
X77503495Y-51128796D01*
X77479227Y-51125196D01*
X77455428Y-51119235D01*
X77432329Y-51110970D01*
X77410150Y-51100480D01*
X77389107Y-51087868D01*
X77369401Y-51073253D01*
X77351223Y-51056777D01*
X77334747Y-51038599D01*
X77320132Y-51018893D01*
X77307520Y-50997850D01*
X77297030Y-50975671D01*
X77288765Y-50952572D01*
X77282804Y-50928773D01*
X77279204Y-50904505D01*
X77278000Y-50880001D01*
X77278000Y-50229999D01*
X77279204Y-50205495D01*
X77282804Y-50181227D01*
X77288765Y-50157428D01*
X77297030Y-50134329D01*
X77307520Y-50112150D01*
X77320132Y-50091107D01*
X77334747Y-50071401D01*
X77351223Y-50053223D01*
X77369401Y-50036747D01*
X77389107Y-50022132D01*
X77410150Y-50009520D01*
X77432329Y-49999030D01*
X77455428Y-49990765D01*
X77479227Y-49984804D01*
X77503495Y-49981204D01*
X77527999Y-49980000D01*
X78428001Y-49980000D01*
X78452505Y-49981204D01*
X78452505Y-49981204D01*
G37*
D17*
X77978000Y-50555000D03*
D10*
G36*
X78452505Y-47931204D02*
G01*
X78476773Y-47934804D01*
X78500572Y-47940765D01*
X78523671Y-47949030D01*
X78545850Y-47959520D01*
X78566893Y-47972132D01*
X78586599Y-47986747D01*
X78604777Y-48003223D01*
X78621253Y-48021401D01*
X78635868Y-48041107D01*
X78648480Y-48062150D01*
X78658970Y-48084329D01*
X78667235Y-48107428D01*
X78673196Y-48131227D01*
X78676796Y-48155495D01*
X78678000Y-48179999D01*
X78678000Y-48830001D01*
X78676796Y-48854505D01*
X78673196Y-48878773D01*
X78667235Y-48902572D01*
X78658970Y-48925671D01*
X78648480Y-48947850D01*
X78635868Y-48968893D01*
X78621253Y-48988599D01*
X78604777Y-49006777D01*
X78586599Y-49023253D01*
X78566893Y-49037868D01*
X78545850Y-49050480D01*
X78523671Y-49060970D01*
X78500572Y-49069235D01*
X78476773Y-49075196D01*
X78452505Y-49078796D01*
X78428001Y-49080000D01*
X77527999Y-49080000D01*
X77503495Y-49078796D01*
X77479227Y-49075196D01*
X77455428Y-49069235D01*
X77432329Y-49060970D01*
X77410150Y-49050480D01*
X77389107Y-49037868D01*
X77369401Y-49023253D01*
X77351223Y-49006777D01*
X77334747Y-48988599D01*
X77320132Y-48968893D01*
X77307520Y-48947850D01*
X77297030Y-48925671D01*
X77288765Y-48902572D01*
X77282804Y-48878773D01*
X77279204Y-48854505D01*
X77278000Y-48830001D01*
X77278000Y-48179999D01*
X77279204Y-48155495D01*
X77282804Y-48131227D01*
X77288765Y-48107428D01*
X77297030Y-48084329D01*
X77307520Y-48062150D01*
X77320132Y-48041107D01*
X77334747Y-48021401D01*
X77351223Y-48003223D01*
X77369401Y-47986747D01*
X77389107Y-47972132D01*
X77410150Y-47959520D01*
X77432329Y-47949030D01*
X77455428Y-47940765D01*
X77479227Y-47934804D01*
X77503495Y-47931204D01*
X77527999Y-47930000D01*
X78428001Y-47930000D01*
X78452505Y-47931204D01*
X78452505Y-47931204D01*
G37*
D17*
X77978000Y-48505000D03*
D18*
X76470000Y-52517000D03*
X76470000Y-54417000D03*
X78470000Y-53467000D03*
D10*
G36*
X76420505Y-49981204D02*
G01*
X76444773Y-49984804D01*
X76468572Y-49990765D01*
X76491671Y-49999030D01*
X76513850Y-50009520D01*
X76534893Y-50022132D01*
X76554599Y-50036747D01*
X76572777Y-50053223D01*
X76589253Y-50071401D01*
X76603868Y-50091107D01*
X76616480Y-50112150D01*
X76626970Y-50134329D01*
X76635235Y-50157428D01*
X76641196Y-50181227D01*
X76644796Y-50205495D01*
X76646000Y-50229999D01*
X76646000Y-50880001D01*
X76644796Y-50904505D01*
X76641196Y-50928773D01*
X76635235Y-50952572D01*
X76626970Y-50975671D01*
X76616480Y-50997850D01*
X76603868Y-51018893D01*
X76589253Y-51038599D01*
X76572777Y-51056777D01*
X76554599Y-51073253D01*
X76534893Y-51087868D01*
X76513850Y-51100480D01*
X76491671Y-51110970D01*
X76468572Y-51119235D01*
X76444773Y-51125196D01*
X76420505Y-51128796D01*
X76396001Y-51130000D01*
X75495999Y-51130000D01*
X75471495Y-51128796D01*
X75447227Y-51125196D01*
X75423428Y-51119235D01*
X75400329Y-51110970D01*
X75378150Y-51100480D01*
X75357107Y-51087868D01*
X75337401Y-51073253D01*
X75319223Y-51056777D01*
X75302747Y-51038599D01*
X75288132Y-51018893D01*
X75275520Y-50997850D01*
X75265030Y-50975671D01*
X75256765Y-50952572D01*
X75250804Y-50928773D01*
X75247204Y-50904505D01*
X75246000Y-50880001D01*
X75246000Y-50229999D01*
X75247204Y-50205495D01*
X75250804Y-50181227D01*
X75256765Y-50157428D01*
X75265030Y-50134329D01*
X75275520Y-50112150D01*
X75288132Y-50091107D01*
X75302747Y-50071401D01*
X75319223Y-50053223D01*
X75337401Y-50036747D01*
X75357107Y-50022132D01*
X75378150Y-50009520D01*
X75400329Y-49999030D01*
X75423428Y-49990765D01*
X75447227Y-49984804D01*
X75471495Y-49981204D01*
X75495999Y-49980000D01*
X76396001Y-49980000D01*
X76420505Y-49981204D01*
X76420505Y-49981204D01*
G37*
D17*
X75946000Y-50555000D03*
D10*
G36*
X76420505Y-47931204D02*
G01*
X76444773Y-47934804D01*
X76468572Y-47940765D01*
X76491671Y-47949030D01*
X76513850Y-47959520D01*
X76534893Y-47972132D01*
X76554599Y-47986747D01*
X76572777Y-48003223D01*
X76589253Y-48021401D01*
X76603868Y-48041107D01*
X76616480Y-48062150D01*
X76626970Y-48084329D01*
X76635235Y-48107428D01*
X76641196Y-48131227D01*
X76644796Y-48155495D01*
X76646000Y-48179999D01*
X76646000Y-48830001D01*
X76644796Y-48854505D01*
X76641196Y-48878773D01*
X76635235Y-48902572D01*
X76626970Y-48925671D01*
X76616480Y-48947850D01*
X76603868Y-48968893D01*
X76589253Y-48988599D01*
X76572777Y-49006777D01*
X76554599Y-49023253D01*
X76534893Y-49037868D01*
X76513850Y-49050480D01*
X76491671Y-49060970D01*
X76468572Y-49069235D01*
X76444773Y-49075196D01*
X76420505Y-49078796D01*
X76396001Y-49080000D01*
X75495999Y-49080000D01*
X75471495Y-49078796D01*
X75447227Y-49075196D01*
X75423428Y-49069235D01*
X75400329Y-49060970D01*
X75378150Y-49050480D01*
X75357107Y-49037868D01*
X75337401Y-49023253D01*
X75319223Y-49006777D01*
X75302747Y-48988599D01*
X75288132Y-48968893D01*
X75275520Y-48947850D01*
X75265030Y-48925671D01*
X75256765Y-48902572D01*
X75250804Y-48878773D01*
X75247204Y-48854505D01*
X75246000Y-48830001D01*
X75246000Y-48179999D01*
X75247204Y-48155495D01*
X75250804Y-48131227D01*
X75256765Y-48107428D01*
X75265030Y-48084329D01*
X75275520Y-48062150D01*
X75288132Y-48041107D01*
X75302747Y-48021401D01*
X75319223Y-48003223D01*
X75337401Y-47986747D01*
X75357107Y-47972132D01*
X75378150Y-47959520D01*
X75400329Y-47949030D01*
X75423428Y-47940765D01*
X75447227Y-47934804D01*
X75471495Y-47931204D01*
X75495999Y-47930000D01*
X76396001Y-47930000D01*
X76420505Y-47931204D01*
X76420505Y-47931204D01*
G37*
D17*
X75946000Y-48505000D03*
D19*
X76454000Y-54483000D03*
X76454000Y-56261000D03*
D20*
X78420000Y-53517000D02*
X78470000Y-53467000D01*
X78420000Y-56277000D02*
X78420000Y-53517000D01*
X78470000Y-50920000D02*
X78105000Y-50555000D01*
X78470000Y-53467000D02*
X78470000Y-50920000D01*
X76327000Y-52374000D02*
X76470000Y-52517000D01*
X76470000Y-51079000D02*
X75946000Y-50555000D01*
X76470000Y-52517000D02*
X76470000Y-51079000D01*
X76520000Y-54467000D02*
X76470000Y-54417000D01*
X76520000Y-56277000D02*
X76520000Y-54467000D01*
D21*
X74930000Y-47489000D02*
X75946000Y-48505000D01*
X74930000Y-45720000D02*
X74930000Y-47489000D01*
X78105000Y-47557081D02*
X78105000Y-48505000D01*
X77470000Y-45720000D02*
X77470000Y-46922081D01*
X77470000Y-46922081D02*
X78105000Y-47557081D01*
X74295000Y-63881000D02*
X73406000Y-64770000D01*
X74295000Y-61087000D02*
X74295000Y-63881000D01*
D20*
X76570000Y-58277000D02*
X76554000Y-58293000D01*
X77470000Y-58277000D02*
X76570000Y-58277000D01*
D21*
X74295000Y-55399000D02*
X73406000Y-54510000D01*
X74295000Y-58287000D02*
X74295000Y-55399000D01*
D20*
X75940000Y-58287000D02*
X74295000Y-58287000D01*
X75946000Y-58293000D02*
X75940000Y-58287000D01*
X75946000Y-58293000D02*
X75184000Y-58293000D01*
X76554000Y-58293000D02*
X75946000Y-58293000D01*
D21*
X73660000Y-52070000D02*
X71374000Y-52070000D01*
X71374000Y-52070000D02*
X69850000Y-52070000D01*
X69850000Y-52070000D02*
X69850000Y-67691000D01*
X77001001Y-69556999D02*
X77851000Y-68707000D01*
X71715999Y-69556999D02*
X77001001Y-69556999D01*
X69850000Y-67691000D02*
X71715999Y-69556999D01*
X66929000Y-52070000D02*
X65786000Y-52070000D01*
X66929000Y-52070000D02*
X66040000Y-52070000D01*
X69850000Y-52070000D02*
X66929000Y-52070000D01*
M02*
