M48
INCH,TZ
T1C0.0157
T2C0.0276
T3C0.0394
%
G90
G05
T1
X30100Y-21450
X30100Y-22150
T2
X25900Y-20500
X25900Y-21461
X25900Y-25500
X25900Y-26500
X28900Y-20500
X28900Y-21461
X28900Y-25500
X28900Y-26500
T3
X26500Y-17000
X27500Y-17000
X27500Y-18000
X28500Y-17000
X28500Y-18000
X29500Y-17000
X29500Y-18000
X30500Y-17000
X30500Y-18000
X30650Y-24050
X30650Y-25050
X30650Y-26050
X30650Y-27050
T0
M30
