G04 #@! TF.GenerationSoftware,KiCad,Pcbnew,(5.1.2)-2*
G04 #@! TF.CreationDate,2020-01-05T09:35:50+00:00*
G04 #@! TF.ProjectId,PlutoPTT,506c7574-6f50-4545-942e-6b696361645f,rev?*
G04 #@! TF.SameCoordinates,Original*
G04 #@! TF.FileFunction,Soldermask,Bot*
G04 #@! TF.FilePolarity,Negative*
%FSLAX46Y46*%
G04 Gerber Fmt 4.6, Leading zero omitted, Abs format (unit mm)*
G04 Created by KiCad (PCBNEW (5.1.2)-2) date 2020-01-05 09:35:50*
%MOMM*%
%LPD*%
G04 APERTURE LIST*
%ADD10C,0.100000*%
G04 APERTURE END LIST*
D10*
G36*
X77961443Y-67812519D02*
G01*
X78027627Y-67819037D01*
X78197466Y-67870557D01*
X78353991Y-67954222D01*
X78379952Y-67975528D01*
X78491186Y-68066814D01*
X78574448Y-68168271D01*
X78603778Y-68204009D01*
X78687443Y-68360534D01*
X78738963Y-68530373D01*
X78756359Y-68707000D01*
X78738963Y-68883627D01*
X78687443Y-69053466D01*
X78603778Y-69209991D01*
X78574448Y-69245729D01*
X78491186Y-69347186D01*
X78389729Y-69430448D01*
X78353991Y-69459778D01*
X78197466Y-69543443D01*
X78027627Y-69594963D01*
X77961443Y-69601481D01*
X77895260Y-69608000D01*
X77806740Y-69608000D01*
X77740557Y-69601481D01*
X77674373Y-69594963D01*
X77504534Y-69543443D01*
X77348009Y-69459778D01*
X77312271Y-69430448D01*
X77210814Y-69347186D01*
X77127552Y-69245729D01*
X77098222Y-69209991D01*
X77014557Y-69053466D01*
X76963037Y-68883627D01*
X76945641Y-68707000D01*
X76963037Y-68530373D01*
X77014557Y-68360534D01*
X77098222Y-68204009D01*
X77127552Y-68168271D01*
X77210814Y-68066814D01*
X77322048Y-67975528D01*
X77348009Y-67954222D01*
X77504534Y-67870557D01*
X77674373Y-67819037D01*
X77740557Y-67812519D01*
X77806740Y-67806000D01*
X77895260Y-67806000D01*
X77961443Y-67812519D01*
X77961443Y-67812519D01*
G37*
G36*
X74157000Y-68061000D02*
G01*
X72655000Y-68061000D01*
X72655000Y-66559000D01*
X74157000Y-66559000D01*
X74157000Y-68061000D01*
X74157000Y-68061000D01*
G37*
G36*
X66005059Y-66587860D02*
G01*
X66141732Y-66644472D01*
X66264735Y-66726660D01*
X66369340Y-66831265D01*
X66428483Y-66919779D01*
X66451529Y-66954270D01*
X66508140Y-67090941D01*
X66537000Y-67236033D01*
X66537000Y-67383967D01*
X66508140Y-67529059D01*
X66451528Y-67665732D01*
X66369340Y-67788735D01*
X66264735Y-67893340D01*
X66141732Y-67975528D01*
X66141731Y-67975529D01*
X66141730Y-67975529D01*
X66005059Y-68032140D01*
X65859968Y-68061000D01*
X65712032Y-68061000D01*
X65566941Y-68032140D01*
X65430270Y-67975529D01*
X65430269Y-67975529D01*
X65430268Y-67975528D01*
X65307265Y-67893340D01*
X65202660Y-67788735D01*
X65120472Y-67665732D01*
X65063860Y-67529059D01*
X65035000Y-67383967D01*
X65035000Y-67236033D01*
X65063860Y-67090941D01*
X65120471Y-66954270D01*
X65143517Y-66919779D01*
X65202660Y-66831265D01*
X65307265Y-66726660D01*
X65430268Y-66644472D01*
X65566941Y-66587860D01*
X65712032Y-66559000D01*
X65859968Y-66559000D01*
X66005059Y-66587860D01*
X66005059Y-66587860D01*
G37*
G36*
X77961443Y-65272519D02*
G01*
X78027627Y-65279037D01*
X78197466Y-65330557D01*
X78353991Y-65414222D01*
X78379952Y-65435528D01*
X78491186Y-65526814D01*
X78574448Y-65628271D01*
X78603778Y-65664009D01*
X78687443Y-65820534D01*
X78738963Y-65990373D01*
X78756359Y-66167000D01*
X78738963Y-66343627D01*
X78687443Y-66513466D01*
X78603778Y-66669991D01*
X78574448Y-66705729D01*
X78491186Y-66807186D01*
X78389729Y-66890448D01*
X78353991Y-66919778D01*
X78197466Y-67003443D01*
X78027627Y-67054963D01*
X77961443Y-67061481D01*
X77895260Y-67068000D01*
X77806740Y-67068000D01*
X77740557Y-67061481D01*
X77674373Y-67054963D01*
X77504534Y-67003443D01*
X77348009Y-66919778D01*
X77312271Y-66890448D01*
X77210814Y-66807186D01*
X77127552Y-66705729D01*
X77098222Y-66669991D01*
X77014557Y-66513466D01*
X76963037Y-66343627D01*
X76945641Y-66167000D01*
X76963037Y-65990373D01*
X77014557Y-65820534D01*
X77098222Y-65664009D01*
X77127552Y-65628271D01*
X77210814Y-65526814D01*
X77322048Y-65435528D01*
X77348009Y-65414222D01*
X77504534Y-65330557D01*
X77674373Y-65279037D01*
X77740557Y-65272519D01*
X77806740Y-65266000D01*
X77895260Y-65266000D01*
X77961443Y-65272519D01*
X77961443Y-65272519D01*
G37*
G36*
X73625059Y-64047860D02*
G01*
X73761732Y-64104472D01*
X73884735Y-64186660D01*
X73989340Y-64291265D01*
X74048483Y-64379779D01*
X74071529Y-64414270D01*
X74128140Y-64550941D01*
X74157000Y-64696033D01*
X74157000Y-64843967D01*
X74128140Y-64989059D01*
X74071528Y-65125732D01*
X73989340Y-65248735D01*
X73884735Y-65353340D01*
X73761732Y-65435528D01*
X73761731Y-65435529D01*
X73761730Y-65435529D01*
X73625059Y-65492140D01*
X73479968Y-65521000D01*
X73332032Y-65521000D01*
X73186941Y-65492140D01*
X73050270Y-65435529D01*
X73050269Y-65435529D01*
X73050268Y-65435528D01*
X72927265Y-65353340D01*
X72822660Y-65248735D01*
X72740472Y-65125732D01*
X72683860Y-64989059D01*
X72655000Y-64843967D01*
X72655000Y-64696033D01*
X72683860Y-64550941D01*
X72740471Y-64414270D01*
X72763517Y-64379779D01*
X72822660Y-64291265D01*
X72927265Y-64186660D01*
X73050268Y-64104472D01*
X73186941Y-64047860D01*
X73332032Y-64019000D01*
X73479968Y-64019000D01*
X73625059Y-64047860D01*
X73625059Y-64047860D01*
G37*
G36*
X66005059Y-64047860D02*
G01*
X66141732Y-64104472D01*
X66264735Y-64186660D01*
X66369340Y-64291265D01*
X66428483Y-64379779D01*
X66451529Y-64414270D01*
X66508140Y-64550941D01*
X66537000Y-64696033D01*
X66537000Y-64843967D01*
X66508140Y-64989059D01*
X66451528Y-65125732D01*
X66369340Y-65248735D01*
X66264735Y-65353340D01*
X66141732Y-65435528D01*
X66141731Y-65435529D01*
X66141730Y-65435529D01*
X66005059Y-65492140D01*
X65859968Y-65521000D01*
X65712032Y-65521000D01*
X65566941Y-65492140D01*
X65430270Y-65435529D01*
X65430269Y-65435529D01*
X65430268Y-65435528D01*
X65307265Y-65353340D01*
X65202660Y-65248735D01*
X65120472Y-65125732D01*
X65063860Y-64989059D01*
X65035000Y-64843967D01*
X65035000Y-64696033D01*
X65063860Y-64550941D01*
X65120471Y-64414270D01*
X65143517Y-64379779D01*
X65202660Y-64291265D01*
X65307265Y-64186660D01*
X65430268Y-64104472D01*
X65566941Y-64047860D01*
X65712032Y-64019000D01*
X65859968Y-64019000D01*
X66005059Y-64047860D01*
X66005059Y-64047860D01*
G37*
G36*
X77961442Y-62732518D02*
G01*
X78027627Y-62739037D01*
X78197466Y-62790557D01*
X78353991Y-62874222D01*
X78389729Y-62903552D01*
X78491186Y-62986814D01*
X78574448Y-63088271D01*
X78603778Y-63124009D01*
X78687443Y-63280534D01*
X78738963Y-63450373D01*
X78756359Y-63627000D01*
X78738963Y-63803627D01*
X78687443Y-63973466D01*
X78603778Y-64129991D01*
X78574448Y-64165729D01*
X78491186Y-64267186D01*
X78389729Y-64350448D01*
X78353991Y-64379778D01*
X78197466Y-64463443D01*
X78027627Y-64514963D01*
X77961442Y-64521482D01*
X77895260Y-64528000D01*
X77806740Y-64528000D01*
X77740558Y-64521482D01*
X77674373Y-64514963D01*
X77504534Y-64463443D01*
X77348009Y-64379778D01*
X77312271Y-64350448D01*
X77210814Y-64267186D01*
X77127552Y-64165729D01*
X77098222Y-64129991D01*
X77014557Y-63973466D01*
X76963037Y-63803627D01*
X76945641Y-63627000D01*
X76963037Y-63450373D01*
X77014557Y-63280534D01*
X77098222Y-63124009D01*
X77127552Y-63088271D01*
X77210814Y-62986814D01*
X77312271Y-62903552D01*
X77348009Y-62874222D01*
X77504534Y-62790557D01*
X77674373Y-62739037D01*
X77740558Y-62732518D01*
X77806740Y-62726000D01*
X77895260Y-62726000D01*
X77961442Y-62732518D01*
X77961442Y-62732518D01*
G37*
G36*
X78752000Y-61988000D02*
G01*
X76950000Y-61988000D01*
X76950000Y-60186000D01*
X78752000Y-60186000D01*
X78752000Y-61988000D01*
X78752000Y-61988000D01*
G37*
G36*
X66005059Y-53787860D02*
G01*
X66141732Y-53844472D01*
X66264735Y-53926660D01*
X66369340Y-54031265D01*
X66451528Y-54154268D01*
X66508140Y-54290941D01*
X66537000Y-54436033D01*
X66537000Y-54583967D01*
X66508140Y-54729059D01*
X66451528Y-54865732D01*
X66369340Y-54988735D01*
X66264735Y-55093340D01*
X66141732Y-55175528D01*
X66141731Y-55175529D01*
X66141730Y-55175529D01*
X66005059Y-55232140D01*
X65859968Y-55261000D01*
X65712032Y-55261000D01*
X65566941Y-55232140D01*
X65430270Y-55175529D01*
X65430269Y-55175529D01*
X65430268Y-55175528D01*
X65307265Y-55093340D01*
X65202660Y-54988735D01*
X65120472Y-54865732D01*
X65063860Y-54729059D01*
X65035000Y-54583967D01*
X65035000Y-54436033D01*
X65063860Y-54290941D01*
X65120472Y-54154268D01*
X65202660Y-54031265D01*
X65307265Y-53926660D01*
X65430268Y-53844472D01*
X65566941Y-53787860D01*
X65712032Y-53759000D01*
X65859968Y-53759000D01*
X66005059Y-53787860D01*
X66005059Y-53787860D01*
G37*
G36*
X73625059Y-53787860D02*
G01*
X73761732Y-53844472D01*
X73884735Y-53926660D01*
X73989340Y-54031265D01*
X74071528Y-54154268D01*
X74128140Y-54290941D01*
X74157000Y-54436033D01*
X74157000Y-54583967D01*
X74128140Y-54729059D01*
X74071528Y-54865732D01*
X73989340Y-54988735D01*
X73884735Y-55093340D01*
X73761732Y-55175528D01*
X73761731Y-55175529D01*
X73761730Y-55175529D01*
X73625059Y-55232140D01*
X73479968Y-55261000D01*
X73332032Y-55261000D01*
X73186941Y-55232140D01*
X73050270Y-55175529D01*
X73050269Y-55175529D01*
X73050268Y-55175528D01*
X72927265Y-55093340D01*
X72822660Y-54988735D01*
X72740472Y-54865732D01*
X72683860Y-54729059D01*
X72655000Y-54583967D01*
X72655000Y-54436033D01*
X72683860Y-54290941D01*
X72740472Y-54154268D01*
X72822660Y-54031265D01*
X72927265Y-53926660D01*
X73050268Y-53844472D01*
X73186941Y-53787860D01*
X73332032Y-53759000D01*
X73479968Y-53759000D01*
X73625059Y-53787860D01*
X73625059Y-53787860D01*
G37*
G36*
X73625059Y-51347860D02*
G01*
X73761732Y-51404472D01*
X73884735Y-51486660D01*
X73989340Y-51591265D01*
X74071528Y-51714268D01*
X74128140Y-51850941D01*
X74157000Y-51996033D01*
X74157000Y-52143967D01*
X74128140Y-52289059D01*
X74071528Y-52425732D01*
X73989340Y-52548735D01*
X73884735Y-52653340D01*
X73761732Y-52735528D01*
X73761731Y-52735529D01*
X73761730Y-52735529D01*
X73625059Y-52792140D01*
X73479968Y-52821000D01*
X73332032Y-52821000D01*
X73186941Y-52792140D01*
X73050270Y-52735529D01*
X73050269Y-52735529D01*
X73050268Y-52735528D01*
X72927265Y-52653340D01*
X72822660Y-52548735D01*
X72740472Y-52425732D01*
X72683860Y-52289059D01*
X72655000Y-52143967D01*
X72655000Y-51996033D01*
X72683860Y-51850941D01*
X72740472Y-51714268D01*
X72822660Y-51591265D01*
X72927265Y-51486660D01*
X73050268Y-51404472D01*
X73186941Y-51347860D01*
X73332032Y-51319000D01*
X73479968Y-51319000D01*
X73625059Y-51347860D01*
X73625059Y-51347860D01*
G37*
G36*
X66005059Y-51347860D02*
G01*
X66141732Y-51404472D01*
X66264735Y-51486660D01*
X66369340Y-51591265D01*
X66451528Y-51714268D01*
X66508140Y-51850941D01*
X66537000Y-51996033D01*
X66537000Y-52143967D01*
X66508140Y-52289059D01*
X66451528Y-52425732D01*
X66369340Y-52548735D01*
X66264735Y-52653340D01*
X66141732Y-52735528D01*
X66141731Y-52735529D01*
X66141730Y-52735529D01*
X66005059Y-52792140D01*
X65859968Y-52821000D01*
X65712032Y-52821000D01*
X65566941Y-52792140D01*
X65430270Y-52735529D01*
X65430269Y-52735529D01*
X65430268Y-52735528D01*
X65307265Y-52653340D01*
X65202660Y-52548735D01*
X65120472Y-52425732D01*
X65063860Y-52289059D01*
X65035000Y-52143967D01*
X65035000Y-51996033D01*
X65063860Y-51850941D01*
X65120472Y-51714268D01*
X65202660Y-51591265D01*
X65307265Y-51486660D01*
X65430268Y-51404472D01*
X65566941Y-51347860D01*
X65712032Y-51319000D01*
X65859968Y-51319000D01*
X66005059Y-51347860D01*
X66005059Y-51347860D01*
G37*
G36*
X75040442Y-44825518D02*
G01*
X75106627Y-44832037D01*
X75276466Y-44883557D01*
X75432991Y-44967222D01*
X75468729Y-44996552D01*
X75570186Y-45079814D01*
X75653448Y-45181271D01*
X75682778Y-45217009D01*
X75766443Y-45373534D01*
X75817963Y-45543373D01*
X75835359Y-45720000D01*
X75817963Y-45896627D01*
X75766443Y-46066466D01*
X75682778Y-46222991D01*
X75653448Y-46258729D01*
X75570186Y-46360186D01*
X75468729Y-46443448D01*
X75432991Y-46472778D01*
X75276466Y-46556443D01*
X75106627Y-46607963D01*
X75040443Y-46614481D01*
X74974260Y-46621000D01*
X74885740Y-46621000D01*
X74819558Y-46614482D01*
X74753373Y-46607963D01*
X74583534Y-46556443D01*
X74427009Y-46472778D01*
X74391271Y-46443448D01*
X74289814Y-46360186D01*
X74206552Y-46258729D01*
X74177222Y-46222991D01*
X74093557Y-46066466D01*
X74042037Y-45896627D01*
X74024641Y-45720000D01*
X74042037Y-45543373D01*
X74093557Y-45373534D01*
X74177222Y-45217009D01*
X74206552Y-45181271D01*
X74289814Y-45079814D01*
X74391271Y-44996552D01*
X74427009Y-44967222D01*
X74583534Y-44883557D01*
X74753373Y-44832037D01*
X74819558Y-44825518D01*
X74885740Y-44819000D01*
X74974260Y-44819000D01*
X75040442Y-44825518D01*
X75040442Y-44825518D01*
G37*
G36*
X77580442Y-44825518D02*
G01*
X77646627Y-44832037D01*
X77816466Y-44883557D01*
X77972991Y-44967222D01*
X78008729Y-44996552D01*
X78110186Y-45079814D01*
X78193448Y-45181271D01*
X78222778Y-45217009D01*
X78306443Y-45373534D01*
X78357963Y-45543373D01*
X78375359Y-45720000D01*
X78357963Y-45896627D01*
X78306443Y-46066466D01*
X78222778Y-46222991D01*
X78193448Y-46258729D01*
X78110186Y-46360186D01*
X78008729Y-46443448D01*
X77972991Y-46472778D01*
X77816466Y-46556443D01*
X77646627Y-46607963D01*
X77580443Y-46614481D01*
X77514260Y-46621000D01*
X77425740Y-46621000D01*
X77359558Y-46614482D01*
X77293373Y-46607963D01*
X77123534Y-46556443D01*
X76967009Y-46472778D01*
X76931271Y-46443448D01*
X76829814Y-46360186D01*
X76746552Y-46258729D01*
X76717222Y-46222991D01*
X76633557Y-46066466D01*
X76582037Y-45896627D01*
X76564641Y-45720000D01*
X76582037Y-45543373D01*
X76633557Y-45373534D01*
X76717222Y-45217009D01*
X76746552Y-45181271D01*
X76829814Y-45079814D01*
X76931271Y-44996552D01*
X76967009Y-44967222D01*
X77123534Y-44883557D01*
X77293373Y-44832037D01*
X77359558Y-44825518D01*
X77425740Y-44819000D01*
X77514260Y-44819000D01*
X77580442Y-44825518D01*
X77580442Y-44825518D01*
G37*
G36*
X72500442Y-44825518D02*
G01*
X72566627Y-44832037D01*
X72736466Y-44883557D01*
X72892991Y-44967222D01*
X72928729Y-44996552D01*
X73030186Y-45079814D01*
X73113448Y-45181271D01*
X73142778Y-45217009D01*
X73226443Y-45373534D01*
X73277963Y-45543373D01*
X73295359Y-45720000D01*
X73277963Y-45896627D01*
X73226443Y-46066466D01*
X73142778Y-46222991D01*
X73113448Y-46258729D01*
X73030186Y-46360186D01*
X72928729Y-46443448D01*
X72892991Y-46472778D01*
X72736466Y-46556443D01*
X72566627Y-46607963D01*
X72500443Y-46614481D01*
X72434260Y-46621000D01*
X72345740Y-46621000D01*
X72279558Y-46614482D01*
X72213373Y-46607963D01*
X72043534Y-46556443D01*
X71887009Y-46472778D01*
X71851271Y-46443448D01*
X71749814Y-46360186D01*
X71666552Y-46258729D01*
X71637222Y-46222991D01*
X71553557Y-46066466D01*
X71502037Y-45896627D01*
X71484641Y-45720000D01*
X71502037Y-45543373D01*
X71553557Y-45373534D01*
X71637222Y-45217009D01*
X71666552Y-45181271D01*
X71749814Y-45079814D01*
X71851271Y-44996552D01*
X71887009Y-44967222D01*
X72043534Y-44883557D01*
X72213373Y-44832037D01*
X72279558Y-44825518D01*
X72345740Y-44819000D01*
X72434260Y-44819000D01*
X72500442Y-44825518D01*
X72500442Y-44825518D01*
G37*
G36*
X69960442Y-44825518D02*
G01*
X70026627Y-44832037D01*
X70196466Y-44883557D01*
X70352991Y-44967222D01*
X70388729Y-44996552D01*
X70490186Y-45079814D01*
X70573448Y-45181271D01*
X70602778Y-45217009D01*
X70686443Y-45373534D01*
X70737963Y-45543373D01*
X70755359Y-45720000D01*
X70737963Y-45896627D01*
X70686443Y-46066466D01*
X70602778Y-46222991D01*
X70573448Y-46258729D01*
X70490186Y-46360186D01*
X70388729Y-46443448D01*
X70352991Y-46472778D01*
X70196466Y-46556443D01*
X70026627Y-46607963D01*
X69960443Y-46614481D01*
X69894260Y-46621000D01*
X69805740Y-46621000D01*
X69739558Y-46614482D01*
X69673373Y-46607963D01*
X69503534Y-46556443D01*
X69347009Y-46472778D01*
X69311271Y-46443448D01*
X69209814Y-46360186D01*
X69126552Y-46258729D01*
X69097222Y-46222991D01*
X69013557Y-46066466D01*
X68962037Y-45896627D01*
X68944641Y-45720000D01*
X68962037Y-45543373D01*
X69013557Y-45373534D01*
X69097222Y-45217009D01*
X69126552Y-45181271D01*
X69209814Y-45079814D01*
X69311271Y-44996552D01*
X69347009Y-44967222D01*
X69503534Y-44883557D01*
X69673373Y-44832037D01*
X69739558Y-44825518D01*
X69805740Y-44819000D01*
X69894260Y-44819000D01*
X69960442Y-44825518D01*
X69960442Y-44825518D01*
G37*
G36*
X72500442Y-42285518D02*
G01*
X72566627Y-42292037D01*
X72736466Y-42343557D01*
X72892991Y-42427222D01*
X72928729Y-42456552D01*
X73030186Y-42539814D01*
X73113448Y-42641271D01*
X73142778Y-42677009D01*
X73226443Y-42833534D01*
X73277963Y-43003373D01*
X73295359Y-43180000D01*
X73277963Y-43356627D01*
X73226443Y-43526466D01*
X73142778Y-43682991D01*
X73113448Y-43718729D01*
X73030186Y-43820186D01*
X72928729Y-43903448D01*
X72892991Y-43932778D01*
X72736466Y-44016443D01*
X72566627Y-44067963D01*
X72500443Y-44074481D01*
X72434260Y-44081000D01*
X72345740Y-44081000D01*
X72279557Y-44074481D01*
X72213373Y-44067963D01*
X72043534Y-44016443D01*
X71887009Y-43932778D01*
X71851271Y-43903448D01*
X71749814Y-43820186D01*
X71666552Y-43718729D01*
X71637222Y-43682991D01*
X71553557Y-43526466D01*
X71502037Y-43356627D01*
X71484641Y-43180000D01*
X71502037Y-43003373D01*
X71553557Y-42833534D01*
X71637222Y-42677009D01*
X71666552Y-42641271D01*
X71749814Y-42539814D01*
X71851271Y-42456552D01*
X71887009Y-42427222D01*
X72043534Y-42343557D01*
X72213373Y-42292037D01*
X72279558Y-42285518D01*
X72345740Y-42279000D01*
X72434260Y-42279000D01*
X72500442Y-42285518D01*
X72500442Y-42285518D01*
G37*
G36*
X69960442Y-42285518D02*
G01*
X70026627Y-42292037D01*
X70196466Y-42343557D01*
X70352991Y-42427222D01*
X70388729Y-42456552D01*
X70490186Y-42539814D01*
X70573448Y-42641271D01*
X70602778Y-42677009D01*
X70686443Y-42833534D01*
X70737963Y-43003373D01*
X70755359Y-43180000D01*
X70737963Y-43356627D01*
X70686443Y-43526466D01*
X70602778Y-43682991D01*
X70573448Y-43718729D01*
X70490186Y-43820186D01*
X70388729Y-43903448D01*
X70352991Y-43932778D01*
X70196466Y-44016443D01*
X70026627Y-44067963D01*
X69960443Y-44074481D01*
X69894260Y-44081000D01*
X69805740Y-44081000D01*
X69739557Y-44074481D01*
X69673373Y-44067963D01*
X69503534Y-44016443D01*
X69347009Y-43932778D01*
X69311271Y-43903448D01*
X69209814Y-43820186D01*
X69126552Y-43718729D01*
X69097222Y-43682991D01*
X69013557Y-43526466D01*
X68962037Y-43356627D01*
X68944641Y-43180000D01*
X68962037Y-43003373D01*
X69013557Y-42833534D01*
X69097222Y-42677009D01*
X69126552Y-42641271D01*
X69209814Y-42539814D01*
X69311271Y-42456552D01*
X69347009Y-42427222D01*
X69503534Y-42343557D01*
X69673373Y-42292037D01*
X69739558Y-42285518D01*
X69805740Y-42279000D01*
X69894260Y-42279000D01*
X69960442Y-42285518D01*
X69960442Y-42285518D01*
G37*
G36*
X75040442Y-42285518D02*
G01*
X75106627Y-42292037D01*
X75276466Y-42343557D01*
X75432991Y-42427222D01*
X75468729Y-42456552D01*
X75570186Y-42539814D01*
X75653448Y-42641271D01*
X75682778Y-42677009D01*
X75766443Y-42833534D01*
X75817963Y-43003373D01*
X75835359Y-43180000D01*
X75817963Y-43356627D01*
X75766443Y-43526466D01*
X75682778Y-43682991D01*
X75653448Y-43718729D01*
X75570186Y-43820186D01*
X75468729Y-43903448D01*
X75432991Y-43932778D01*
X75276466Y-44016443D01*
X75106627Y-44067963D01*
X75040443Y-44074481D01*
X74974260Y-44081000D01*
X74885740Y-44081000D01*
X74819557Y-44074481D01*
X74753373Y-44067963D01*
X74583534Y-44016443D01*
X74427009Y-43932778D01*
X74391271Y-43903448D01*
X74289814Y-43820186D01*
X74206552Y-43718729D01*
X74177222Y-43682991D01*
X74093557Y-43526466D01*
X74042037Y-43356627D01*
X74024641Y-43180000D01*
X74042037Y-43003373D01*
X74093557Y-42833534D01*
X74177222Y-42677009D01*
X74206552Y-42641271D01*
X74289814Y-42539814D01*
X74391271Y-42456552D01*
X74427009Y-42427222D01*
X74583534Y-42343557D01*
X74753373Y-42292037D01*
X74819558Y-42285518D01*
X74885740Y-42279000D01*
X74974260Y-42279000D01*
X75040442Y-42285518D01*
X75040442Y-42285518D01*
G37*
G36*
X77580442Y-42285518D02*
G01*
X77646627Y-42292037D01*
X77816466Y-42343557D01*
X77972991Y-42427222D01*
X78008729Y-42456552D01*
X78110186Y-42539814D01*
X78193448Y-42641271D01*
X78222778Y-42677009D01*
X78306443Y-42833534D01*
X78357963Y-43003373D01*
X78375359Y-43180000D01*
X78357963Y-43356627D01*
X78306443Y-43526466D01*
X78222778Y-43682991D01*
X78193448Y-43718729D01*
X78110186Y-43820186D01*
X78008729Y-43903448D01*
X77972991Y-43932778D01*
X77816466Y-44016443D01*
X77646627Y-44067963D01*
X77580443Y-44074481D01*
X77514260Y-44081000D01*
X77425740Y-44081000D01*
X77359557Y-44074481D01*
X77293373Y-44067963D01*
X77123534Y-44016443D01*
X76967009Y-43932778D01*
X76931271Y-43903448D01*
X76829814Y-43820186D01*
X76746552Y-43718729D01*
X76717222Y-43682991D01*
X76633557Y-43526466D01*
X76582037Y-43356627D01*
X76564641Y-43180000D01*
X76582037Y-43003373D01*
X76633557Y-42833534D01*
X76717222Y-42677009D01*
X76746552Y-42641271D01*
X76829814Y-42539814D01*
X76931271Y-42456552D01*
X76967009Y-42427222D01*
X77123534Y-42343557D01*
X77293373Y-42292037D01*
X77359558Y-42285518D01*
X77425740Y-42279000D01*
X77514260Y-42279000D01*
X77580442Y-42285518D01*
X77580442Y-42285518D01*
G37*
G36*
X67420442Y-42285518D02*
G01*
X67486627Y-42292037D01*
X67656466Y-42343557D01*
X67812991Y-42427222D01*
X67848729Y-42456552D01*
X67950186Y-42539814D01*
X68033448Y-42641271D01*
X68062778Y-42677009D01*
X68146443Y-42833534D01*
X68197963Y-43003373D01*
X68215359Y-43180000D01*
X68197963Y-43356627D01*
X68146443Y-43526466D01*
X68062778Y-43682991D01*
X68033448Y-43718729D01*
X67950186Y-43820186D01*
X67848729Y-43903448D01*
X67812991Y-43932778D01*
X67656466Y-44016443D01*
X67486627Y-44067963D01*
X67420443Y-44074481D01*
X67354260Y-44081000D01*
X67265740Y-44081000D01*
X67199557Y-44074481D01*
X67133373Y-44067963D01*
X66963534Y-44016443D01*
X66807009Y-43932778D01*
X66771271Y-43903448D01*
X66669814Y-43820186D01*
X66586552Y-43718729D01*
X66557222Y-43682991D01*
X66473557Y-43526466D01*
X66422037Y-43356627D01*
X66404641Y-43180000D01*
X66422037Y-43003373D01*
X66473557Y-42833534D01*
X66557222Y-42677009D01*
X66586552Y-42641271D01*
X66669814Y-42539814D01*
X66771271Y-42456552D01*
X66807009Y-42427222D01*
X66963534Y-42343557D01*
X67133373Y-42292037D01*
X67199558Y-42285518D01*
X67265740Y-42279000D01*
X67354260Y-42279000D01*
X67420442Y-42285518D01*
X67420442Y-42285518D01*
G37*
M02*
